<svg width="31" height="37" viewBox="0 0 31 37" fill="none" xmlns="http://www.w3.org/2000/svg">
<path d="M16.12 31.48C13.688 31.48 11.464 31.112 9.44799 30.376C7.46399 29.64 5.79999 28.488 4.45599 26.92L7.81599 23.944C8.90399 25.096 10.136 25.96 11.512 26.536C12.92 27.112 14.472 27.4 16.168 27.4C16.84 27.4 17.512 27.336 18.184 27.208C18.856 27.08 19.464 26.888 20.008 26.632C20.552 26.376 20.984 26.04 21.304 25.624C21.624 25.208 21.784 24.728 21.784 24.184C21.784 23.256 21.24 22.536 20.152 22.024C19.576 21.8 18.872 21.56 18.04 21.304C17.208 21.048 16.232 20.808 15.112 20.584C13.224 20.168 11.592 19.704 10.216 19.192C8.83999 18.648 7.73599 17.992 6.90399 17.224C6.29599 16.616 5.83199 15.928 5.51199 15.16C5.22399 14.392 5.07999 13.512 5.07999 12.52C5.07999 11.464 5.33599 10.488 5.84799 9.592C6.39199 8.696 7.14399 7.928 8.10399 7.288C9.06399 6.648 10.184 6.152 11.464 5.8C12.744 5.448 14.12 5.272 15.592 5.272C16.904 5.272 18.232 5.432 19.576 5.752C20.952 6.04 22.232 6.488 23.416 7.096C24.632 7.672 25.64 8.408 26.44 9.304L23.704 12.52C22.968 11.912 22.136 11.368 21.208 10.888C20.312 10.408 19.384 10.04 18.424 9.784C17.464 9.496 16.568 9.352 15.736 9.352C15.032 9.352 14.328 9.416 13.624 9.544C12.92 9.64 12.296 9.816 11.752 10.072C11.24 10.296 10.824 10.6 10.504 10.984C10.184 11.368 10.024 11.832 10.024 12.376C10.024 12.792 10.12 13.176 10.312 13.528C10.536 13.848 10.824 14.136 11.176 14.392C11.72 14.744 12.456 15.064 13.384 15.352C14.312 15.64 15.416 15.912 16.696 16.168C18.36 16.52 19.832 16.936 21.112 17.416C22.424 17.864 23.512 18.424 24.376 19.096C25.112 19.64 25.656 20.296 26.008 21.064C26.392 21.832 26.584 22.712 26.584 23.704C26.584 25.272 26.104 26.648 25.144 27.832C24.216 28.984 22.968 29.88 21.4 30.52C19.832 31.16 18.072 31.48 16.12 31.48Z" fill="white"/>
<path d="M25.4757 3.01979L30.1146 3.0542L18.0857 18.3347L5.88525 33.8752L1.2463 33.8408L13.5716 17.9084L25.4757 3.01979Z" fill="#FFE066"/>
</svg>
