<svg width="31" height="37" fill="none" xmlns="http://www.w3.org/2000/svg"><path d="M16.12 31.48c-2.432 0-4.656-.368-6.672-1.104-1.984-.736-3.648-1.888-4.992-3.456l3.36-2.976c1.088 1.152 2.32 2.016 3.696 2.592 1.408.576 2.96.864 4.656.864.672 0 1.344-.064 2.016-.192a7.616 7.616 0 0 0 1.824-.576c.544-.256.976-.592 1.296-1.008.32-.416.48-.896.48-1.44 0-.928-.544-1.648-1.632-2.16a30.232 30.232 0 0 0-5.04-1.44c-1.888-.416-3.52-.88-4.896-1.392-1.376-.544-2.48-1.2-3.312-1.968a6.355 6.355 0 0 1-1.392-2.064c-.288-.768-.432-1.648-.432-2.64a5.8 5.8 0 0 1 .768-2.928c.544-.896 1.296-1.664 2.256-2.304.96-.64 2.08-1.136 3.36-1.488 1.28-.352 2.656-.528 4.128-.528 1.312 0 2.64.16 3.984.48 1.376.288 2.656.736 3.84 1.344 1.216.576 2.224 1.312 3.024 2.208l-2.736 3.216a14.003 14.003 0 0 0-2.496-1.632 12.94 12.94 0 0 0-2.784-1.104c-.96-.288-1.856-.432-2.688-.432-.704 0-1.408.064-2.112.192a6.413 6.413 0 0 0-1.872.528 3.327 3.327 0 0 0-1.248.912c-.32.384-.48.848-.48 1.392 0 .416.096.8.288 1.152.224.32.512.608.864.864.544.352 1.28.672 2.208.96.928.288 2.032.56 3.312.816 1.664.352 3.136.768 4.416 1.248 1.312.448 2.4 1.008 3.264 1.68.736.544 1.28 1.2 1.632 1.968.384.768.576 1.648.576 2.64 0 1.568-.48 2.944-1.44 4.128-.928 1.152-2.176 2.048-3.744 2.688-1.568.64-3.328.96-5.28.96Z" fill="#fff"/><path d="m25.476 3.02 4.639.034-12.03 15.28-12.2 15.541-4.639-.034 12.326-15.933L25.476 3.02Z" fill="#FFE066"/></svg>